<?xml version="1.0" encoding="utf-8"?>
<!-- Generator: Adobe Illustrator 18.1.1, SVG Export Plug-In . SVG Version: 6.00 Build 0)  -->
<svg version="1.1" id="Layer_1" xmlns="http://www.w3.org/2000/svg" xmlns:xlink="http://www.w3.org/1999/xlink" x="0px" y="0px"
	 viewBox="0 0 135 36.5" enable-background="new 0 0 135 36.5" xml:space="preserve">
<g>
	<path fill-rule="evenodd" clip-rule="evenodd" fill="#F16822" d="M91.6,11.2c0,0-0.6-4-3.3-6.2l0,0c-0.3-0.3-0.6-0.5-0.9-0.6
		c0,0-0.1,0-0.1,0c-0.6-0.1-0.9,0.1-0.9,0.1c0,0-0.1,0-0.1,0.1C86,4.6,85.8,4.7,85.6,5l0,0c-2.7,2.2-3.3,6.2-3.3,6.2
		c1.9-3.3,4.1-3.4,4.1-3.4l0,0c0.3-0.1,0.7-0.1,1.2,0l0,0c0,0,0.5,0,1.2,0.4c0.1,0,0.1,0.1,0.2,0.1C89.6,8.7,90.6,9.6,91.6,11.2z"/>
	<path fill="#ffffff" d="M2.8,31V9c0-1.2-0.1-1.9-0.2-2.3C2.5,6.4,2.3,6.1,2,5.9C1.8,5.8,1.4,5.7,0.9,5.7C0.3,5.6,0,5.4,0,5.1
		c0-0.4,0.5-0.6,1.4-0.8C2.1,4.1,2.6,4,3.1,3.8c0.7-0.2,1.3-0.5,2-0.9c0.7-0.4,1.1-0.6,1.2-0.6c0.1,0,0.3,0.1,0.3,0.2
		c0.1,0.1,0.1,0.3,0.1,0.4c0,0.1,0,0.2,0,0.4C6.6,4.4,6.6,5.6,6.6,6.7V19c0.8-1,1.8-1.8,2.8-2.4c1.1-0.5,2.2-0.8,3.3-0.8
		c2.4,0,4.2,0.8,5.7,2.4c1.4,1.6,2.2,3.7,2.2,6.4c0,3-0.9,5.6-2.7,7.6c-1.8,2-4.1,3-6.8,3c-1.8,0-3.6-0.6-5.4-1.8
		C5.3,33.1,5.1,33,5,33c-0.3,0-0.6,0.4-1,1.2c-0.4,0.8-0.7,1.2-0.9,1.2c-0.2,0-0.3-0.1-0.4-0.2c-0.1-0.1-0.1-0.3-0.1-0.5v-0.1
		c0-0.1,0-0.2,0-0.4C2.8,33.1,2.8,32.1,2.8,31z M6.6,29.2c0,1.4,0.5,2.6,1.4,3.4c0.9,0.9,2.2,1.3,3.7,1.3c1.8,0,3.2-0.5,4.2-1.7
		c1-1.1,1.4-2.7,1.4-4.8c0-2.6-0.6-4.7-1.9-6.5c-1.3-1.7-2.9-2.6-4.8-2.6c-1.2,0-2.2,0.3-2.9,0.9c-0.7,0.6-1.1,1.3-1.1,2.3V29.2z"/>
	<path fill="#ffffff" d="M29.3,24v0.1c0,2.6,0.6,4.7,1.9,6.3c1.2,1.6,2.9,2.4,4.9,2.4c1.5,0,3.2-0.6,4.9-1.7c0.5-0.3,0.8-0.5,0.9-0.5
		c0.2,0,0.3,0.1,0.4,0.1c0.1,0.1,0.1,0.2,0.1,0.4c0,0.2-0.2,0.5-0.5,0.9c-0.4,0.4-0.8,0.8-1.4,1.3c-0.9,0.7-1.8,1.2-2.8,1.6
		c-1,0.3-2,0.5-3.1,0.5c-2.7,0-4.8-0.9-6.4-2.6c-1.6-1.7-2.5-4-2.5-6.9c0-2.9,0.8-5.2,2.5-7.2c1.7-1.9,3.8-2.9,6.3-2.9
		c1.3,0,2.5,0.3,3.6,0.8c1.1,0.6,2,1.4,2.8,2.4c0.5,0.6,0.9,1.3,1.1,2.1c0.3,0.8,0.4,1.4,0.4,1.8c0,0.4-0.1,0.7-0.3,0.8
		c-0.2,0.1-0.7,0.2-1.4,0.2H29.3z M29.3,22.7h6.1c1,0,1.6-0.1,2-0.3c0.4-0.2,0.5-0.5,0.5-0.9c0-1.2-0.4-2.3-1.3-3.2
		c-0.9-0.9-1.9-1.4-3.1-1.4c-1.3,0-2.3,0.5-3,1.5C29.8,19.4,29.4,20.9,29.3,22.7z"/>
	<path fill="#ffffff" d="M54.8,15.9c1.1,0,2,0.1,2.9,0.3c0.9,0.2,1.4,0.5,1.5,0.7c0,0,0.1,0.5,0.3,1.4c0.1,0.9,0.2,1.6,0.2,2.1c0,0.2,0,0.3-0.1,0.4
		s-0.2,0.1-0.3,0.1c-0.2,0-0.5-0.3-0.8-0.9c-0.3-0.6-0.6-1-0.9-1.3c-0.5-0.6-1.1-1-1.7-1.3c-0.6-0.3-1.2-0.4-1.8-0.4
		c-0.9,0-1.5,0.2-2.1,0.7c-0.5,0.5-0.8,1.1-0.8,1.9c0,1.4,1.4,2.6,4.3,3.7c0.6,0.2,1,0.4,1.3,0.5c1.3,0.5,2.3,1.2,2.9,2.1s1,2,1,3.3
		c0,1.8-0.6,3.3-1.9,4.5c-1.2,1.2-2.9,1.7-4.9,1.7c-0.9,0-2.1-0.2-3.5-0.6c-0.6-0.2-1.1-0.3-1.4-0.4c-0.2,0-0.3-0.2-0.4-0.4
		c-0.1-0.2-0.1-0.7-0.1-1.3V32c0-0.4-0.1-1-0.2-1.7c-0.1-0.7-0.2-1.1-0.2-1.4c0-0.2,0-0.4,0.1-0.5c0.1-0.1,0.2-0.2,0.4-0.2
		c0.3,0,0.6,0.4,0.9,1.1c0.2,0.6,0.4,1.1,0.6,1.5c0.6,1.1,1.2,1.9,1.9,2.4c0.7,0.5,1.5,0.8,2.5,0.8c1,0,1.9-0.3,2.5-0.9
		c0.6-0.6,0.9-1.4,0.9-2.4c0-1.5-1.5-2.8-4.4-3.9c-0.5-0.2-0.9-0.4-1.2-0.5c-1.3-0.5-2.2-1.2-2.9-2.1c-0.7-0.8-1-1.8-1-3
		c0-1.7,0.6-3,1.7-4C51.3,16.4,52.9,15.9,54.8,15.9z"/>
	<path  fill="#ffffff" d="M68.1,28.4v-9.9h-1.9c-0.3,0-0.5,0-0.6-0.1c-0.1-0.1-0.2-0.1-0.2-0.3c0-0.2,0.5-0.6,1.4-1.4c0.9-0.8,1.7-1.5,2.4-2.4
		c0.4-0.5,0.9-1.1,1.3-1.9c0.4-0.7,0.8-1.1,1-1.1c0.1,0,0.2,0.1,0.3,0.3c0.1,0.2,0.1,0.5,0.1,1.1v3.7h3.4c0.7,0,1.4-0.2,1.9-0.6
		c0.5-0.4,0.8-0.6,0.8-0.6c0.1,0,0.2,0,0.2,0.1c0.1,0.1,0.1,0.2,0.1,0.3c0,0.1-0.1,0.5-0.3,1.1c-0.2,0.6-0.4,1.2-0.6,1.7h-5.5v9.1
		c0,1.8,0.3,3.2,0.8,4c0.5,0.8,1.3,1.3,2.4,1.3c0.7,0,1.4-0.2,2.2-0.6c0.8-0.4,1.1-0.6,1.2-0.6c0.2,0,0.3,0,0.4,0.1
		c0.1,0.1,0.1,0.2,0.1,0.3c0,0.6-0.6,1.2-1.9,2c-1.3,0.7-2.6,1.1-4,1.1c-1.7,0-2.9-0.6-3.7-1.7C68.5,32.4,68.1,30.7,68.1,28.4z"/>
	<path fill="#767676" d="M88.8,29.8c0,1.1,0.1,2,0.3,2.5c0.2,0.5,0.6,0.9,1.1,1.1c0.3,0.1,0.6,0.1,1.2,0.2c0.8,0.1,1.2,0.3,1.3,0.7
		c0,0.3-0.1,0.5-0.2,0.5c-0.2,0.1-0.6,0.1-1.2,0.1c-0.3,0-0.9,0-1.9-0.1c-1,0-1.8-0.1-2.5-0.1c-0.5,0-1.2,0-1.9,0.1
		c-0.7,0-1.2,0.1-1.4,0.1c-0.3,0-0.4,0-0.5-0.1c-0.1-0.1-0.2-0.2-0.2-0.4c0-0.2,0.2-0.5,0.7-0.7c0.3-0.1,0.5-0.2,0.6-0.3
		c0.3-0.2,0.6-0.5,0.7-1c0.1-0.5,0.2-1.3,0.2-2.4v-8.2c0-1.2-0.1-2.1-0.4-2.5c-0.3-0.4-0.8-0.6-1.6-0.6c-0.5,0-0.8,0-0.9-0.1
		c-0.1-0.1-0.2-0.2-0.2-0.4c0-0.3,0.4-0.6,1.2-0.7c0.7-0.1,1.3-0.3,1.8-0.4c0.8-0.2,1.6-0.5,2.4-0.9c0.8-0.4,1.2-0.6,1.3-0.6
		c0.1,0,0.2,0,0.3,0.2c0.1,0.1,0.1,0.2,0.1,0.4c0,0,0,0.2,0,0.3c-0.1,1.1-0.1,2.3-0.1,3.4V29.8z"/>
	<path fill="#767676" d="M110.5,19.8l-1.5,1.3c-0.2,0.2-0.3,0.3-0.5,0.3c-0.1,0.1-0.2,0.1-0.4,0.1c-0.2,0-0.4-0.2-0.5-0.6
		c-0.1-0.4-0.3-0.7-0.4-0.9c-0.4-0.8-0.9-1.3-1.4-1.7c-0.6-0.4-1.2-0.6-1.8-0.6c-1.2,0-2.2,0.5-3,1.6c-0.8,1.1-1.2,2.5-1.2,4.2
		c0,2.8,0.6,5,1.9,6.7c1.3,1.7,2.9,2.6,5,2.6c0.6,0,1.3-0.1,1.9-0.3c0.6-0.2,1.2-0.5,1.8-0.9c0.2-0.2,0.5-0.4,0.9-0.7
		c0.3-0.3,0.5-0.4,0.7-0.4c0.2,0,0.3,0,0.4,0.1c0.1,0.1,0.1,0.2,0.1,0.3c0,0.9-0.8,1.9-2.5,3c-1.7,1.1-3.5,1.7-5.5,1.7
		c-2.5,0-4.5-0.8-6.1-2.5c-1.6-1.7-2.3-3.8-2.3-6.5c0-1.3,0.2-2.5,0.6-3.6c0.4-1.1,1-2.2,1.8-3.2c1-1.2,2.1-2.1,3.4-2.8
		c1.3-0.7,2.7-1,4.1-1c1.4,0,2.6,0.3,3.7,1c1.1,0.7,1.6,1.4,1.6,2.1c0,0.1,0,0.2-0.1,0.4C110.9,19.4,110.8,19.6,110.5,19.8z"/>
	<path fill="#767676" d="M131.5,23v7.2c0,1.1,0.1,1.9,0.4,2.3c0.3,0.4,0.7,0.7,1.3,0.7c0.1,0,0.4,0,0.6-0.1c0.3-0.1,0.5-0.1,0.6-0.1
		c0.2,0,0.3,0,0.4,0.1c0.1,0.1,0.2,0.2,0.2,0.3c0,0.3-0.4,0.7-1.2,1.1c-0.8,0.4-1.6,0.6-2.5,0.6c-0.8,0-1.4-0.2-2-0.6
		c-0.5-0.4-0.9-1-1.2-1.8c-1,0.9-2.1,1.6-3.3,2.1c-1.2,0.5-2.5,0.7-3.8,0.7c-1.4,0-2.4-0.4-3.2-1.2c-0.8-0.8-1.2-1.8-1.2-3.2
		c0-1.8,0.8-3.2,2.3-4.2c1.5-1,4.4-1.9,8.7-2.7c0-0.1,0-0.3,0-0.5c0-0.2,0-0.4,0-0.7c0-1.9-0.4-3.4-1.1-4.4c-0.7-1-1.8-1.5-3.2-1.5
		c-0.9,0-1.5,0.2-1.9,0.7c-0.4,0.5-0.7,1.1-0.7,2.1c0,0.1,0,0.2,0,0.4c0,0.2,0,0.3,0,0.3c0,0.4-0.2,0.6-0.7,0.8
		c-0.5,0.2-1.2,0.3-2.1,0.3c-0.3,0-0.5-0.1-0.6-0.2c-0.1-0.2-0.2-0.5-0.2-0.9c0-1.3,0.7-2.4,2-3.3c1.3-0.9,3-1.3,5.1-1.3
		c2.5,0,4.3,0.6,5.5,1.7C130.9,18.6,131.5,20.5,131.5,23z M127.7,29.5v-4.4c-2.6,0.5-4.4,1.2-5.5,2c-1,0.8-1.6,1.9-1.6,3.2
		c0,1,0.3,1.7,0.8,2.3c0.5,0.6,1.2,0.8,2.1,0.8c0.6,0,1.2-0.1,1.8-0.4c0.6-0.3,1.2-0.6,1.6-1c0.3-0.3,0.5-0.5,0.6-0.9
		C127.7,30.9,127.7,30.3,127.7,29.5z"/>
</g>
</svg>
