<?xml version="1.0" encoding="utf-8"?>
<!-- Generator: Adobe Illustrator 18.1.1, SVG Export Plug-In . SVG Version: 6.00 Build 0)  -->
<svg version="1.1" id="Layer_1" xmlns="http://www.w3.org/2000/svg" xmlns:xlink="http://www.w3.org/1999/xlink" x="0px" y="0px"
	 viewBox="0 0 32 32" enable-background="new 0 0 32 32" xml:space="preserve">
<g>
	<path fill="#FFFFFF" d="M21.7,14.3c0,0-0.1-0.9-0.8-1.5l0,0c-0.1-0.1-0.1-0.1-0.2-0.1h0c-0.1,0-0.2,0-0.2,0s0,0,0,0
		c-0.1,0-0.1,0-0.2,0.1l0,0c-0.6,0.5-0.8,1.5-0.8,1.5c0.5-0.8,1-0.8,1-0.8l0,0c0.1,0,0.2,0,0.3,0l0,0c0,0,0.1,0,0.3,0.1c0,0,0,0,0,0
		C21.2,13.7,21.5,13.9,21.7,14.3z"/>
	<path fill="#FFFFFF" d="M0.7,19v-5.2c0-0.3,0-0.5,0-0.5c0-0.1-0.1-0.1-0.1-0.2c0,0-0.1,0-0.3,0C0.1,13,0,13,0,12.9
		c0-0.1,0.1-0.1,0.3-0.2c0.2,0,0.3-0.1,0.4-0.1c0.2,0,0.3-0.1,0.5-0.2c0.2-0.1,0.3-0.1,0.3-0.1c0,0,0.1,0,0.1,0c0,0,0,0.1,0,0.1
		s0,0,0,0.1c0,0.3,0,0.5,0,0.8v2.9c0.2-0.2,0.4-0.4,0.7-0.6c0.3-0.1,0.5-0.2,0.8-0.2c0.6,0,1,0.2,1.4,0.6c0.3,0.4,0.5,0.9,0.5,1.5
		c0,0.7-0.2,1.3-0.6,1.8c-0.4,0.5-1,0.7-1.6,0.7c-0.4,0-0.9-0.1-1.3-0.4c-0.1-0.1-0.1-0.1-0.2-0.1c-0.1,0-0.1,0.1-0.2,0.3
		c-0.1,0.2-0.2,0.3-0.2,0.3c0,0-0.1,0-0.1,0c0,0,0-0.1,0-0.1v0c0,0,0,0,0-0.1C0.7,19.5,0.7,19.3,0.7,19z M1.6,18.6
		c0,0.3,0.1,0.6,0.3,0.8c0.2,0.2,0.5,0.3,0.9,0.3c0.4,0,0.8-0.1,1-0.4C4,19,4.1,18.7,4.1,18.2c0-0.6-0.1-1.1-0.5-1.5
		C3.3,16.2,3,16,2.5,16c-0.3,0-0.5,0.1-0.7,0.2c-0.2,0.1-0.3,0.3-0.3,0.5C1.6,16.8,1.6,18.6,1.6,18.6z"/>
	<path fill="#FFFFFF" d="M6.9,17.4L6.9,17.4c0,0.6,0.1,1.1,0.5,1.5c0.3,0.4,0.7,0.6,1.2,0.6c0.4,0,0.8-0.1,1.2-0.4
		c0.1-0.1,0.2-0.1,0.2-0.1c0,0,0.1,0,0.1,0c0,0,0,0,0,0.1s0,0.1-0.1,0.2c-0.1,0.1-0.2,0.2-0.3,0.3c-0.2,0.2-0.4,0.3-0.7,0.4
		c-0.2,0.1-0.5,0.1-0.7,0.1c-0.6,0-1.1-0.2-1.5-0.6c-0.4-0.4-0.6-0.9-0.6-1.6c0-0.7,0.2-1.2,0.6-1.7c0.4-0.5,0.9-0.7,1.5-0.7
		c0.3,0,0.6,0.1,0.9,0.2c0.3,0.1,0.5,0.3,0.7,0.6c0.1,0.1,0.2,0.3,0.3,0.5c0.1,0.2,0.1,0.3,0.1,0.4c0,0.1,0,0.2-0.1,0.2
		c0,0-0.2,0-0.3,0L6.9,17.4L6.9,17.4z M6.9,17.1h1.4c0.2,0,0.4,0,0.5-0.1S9,16.9,9,16.8c0-0.3-0.1-0.5-0.3-0.8
		c-0.2-0.2-0.5-0.3-0.7-0.3c-0.3,0-0.5,0.1-0.7,0.4C7.1,16.3,7,16.6,6.9,17.1z"/>
	<path fill="#FFFFFF" d="M13,15.4c0.3,0,0.5,0,0.7,0.1c0.2,0,0.3,0.1,0.4,0.2c0,0,0,0.1,0.1,0.3c0,0.2,0,0.4,0,0.5c0,0,0,0.1,0,0.1
		c0,0,0,0-0.1,0c0,0-0.1-0.1-0.2-0.2c-0.1-0.1-0.1-0.2-0.2-0.3c-0.1-0.1-0.3-0.2-0.4-0.3c-0.1-0.1-0.3-0.1-0.4-0.1
		c-0.2,0-0.4,0-0.5,0.2c-0.1,0.1-0.2,0.3-0.2,0.5c0,0.3,0.3,0.6,1,0.9c0.1,0,0.2,0.1,0.3,0.1c0.3,0.1,0.5,0.3,0.7,0.5
		c0.1,0.2,0.2,0.5,0.2,0.8c0,0.4-0.1,0.8-0.5,1.1c-0.3,0.3-0.7,0.4-1.2,0.4c-0.2,0-0.5,0-0.8-0.1c-0.1,0-0.3-0.1-0.3-0.1
		c0,0-0.1,0-0.1-0.1c0,0,0-0.2,0-0.3v-0.2c0-0.1,0-0.2,0-0.4s0-0.3,0-0.3c0,0,0-0.1,0-0.1s0,0,0.1,0c0.1,0,0.1,0.1,0.2,0.3
		c0,0.1,0.1,0.3,0.1,0.4c0.1,0.3,0.3,0.5,0.5,0.6c0.2,0.1,0.4,0.2,0.6,0.2c0.2,0,0.5-0.1,0.6-0.2c0.1-0.1,0.2-0.3,0.2-0.6
		c0-0.4-0.4-0.7-1-0.9c-0.1,0-0.2-0.1-0.3-0.1c-0.3-0.1-0.5-0.3-0.7-0.5c-0.2-0.2-0.2-0.4-0.2-0.7c0-0.4,0.1-0.7,0.4-0.9
		C12.2,15.6,12.5,15.4,13,15.4z"/>
	<path fill="#FFFFFF" d="M16.1,18.4v-2.3h-0.5c-0.1,0-0.1,0-0.1,0c0,0,0,0,0-0.1c0,0,0.1-0.1,0.3-0.3s0.4-0.4,0.6-0.6
		c0.1-0.1,0.2-0.3,0.3-0.5c0.1-0.2,0.2-0.3,0.2-0.3c0,0,0,0,0.1,0.1c0,0,0,0.1,0,0.3v0.9h0.8c0.2,0,0.3,0,0.5-0.1
		c0.1-0.1,0.2-0.1,0.2-0.1c0,0,0,0,0,0c0,0,0,0,0,0.1c0,0,0,0.1-0.1,0.3c0,0.1-0.1,0.3-0.1,0.4H17v2.2c0,0.4,0.1,0.8,0.2,0.9
		s0.3,0.3,0.6,0.3c0.2,0,0.3,0,0.5-0.1c0.2-0.1,0.3-0.1,0.3-0.1c0,0,0.1,0,0.1,0c0,0,0,0,0,0.1c0,0.1-0.1,0.3-0.5,0.5
		C18,19.9,17.7,20,17.3,20c-0.4,0-0.7-0.1-0.9-0.4C16.2,19.4,16.1,19,16.1,18.4z"/>
	<path fill="#FFFFFF" d="M21,18.7c0,0.3,0,0.5,0.1,0.6c0,0.1,0.1,0.2,0.3,0.3c0.1,0,0.1,0,0.3,0c0.2,0,0.3,0.1,0.3,0.2
		c0,0.1,0,0.1,0,0.1c0,0-0.1,0-0.3,0c-0.1,0-0.2,0-0.5,0c-0.2,0-0.4,0-0.6,0c-0.1,0-0.3,0-0.5,0c-0.2,0-0.3,0-0.3,0
		c-0.1,0-0.1,0-0.1,0c0,0,0,0,0-0.1s0-0.1,0.2-0.2c0.1,0,0.1,0,0.1-0.1c0.1,0,0.1-0.1,0.2-0.2c0-0.1,0-0.3,0-0.6v-1.9
		c0-0.3,0-0.5-0.1-0.6c-0.1-0.1-0.2-0.1-0.4-0.1c-0.1,0-0.2,0-0.2,0c0,0,0,0,0-0.1c0-0.1,0.1-0.1,0.3-0.2c0.2,0,0.3-0.1,0.4-0.1
		c0.2,0,0.4-0.1,0.6-0.2c0.2-0.1,0.3-0.1,0.3-0.1c0,0,0,0,0.1,0c0,0,0,0,0,0.1c0,0,0,0,0,0.1c0,0.3,0,0.5,0,0.8L21,18.7L21,18.7z"/>
	<path fill="#FFFFFF" d="M26.2,16.4l-0.4,0.3c0,0-0.1,0.1-0.1,0.1c0,0,0,0-0.1,0c0,0-0.1,0-0.1-0.1s-0.1-0.2-0.1-0.2
		c-0.1-0.2-0.2-0.3-0.3-0.4c-0.1-0.1-0.3-0.1-0.4-0.1c-0.3,0-0.5,0.1-0.7,0.4s-0.3,0.6-0.3,1c0,0.7,0.1,1.2,0.5,1.6
		c0.3,0.4,0.7,0.6,1.2,0.6c0.1,0,0.3,0,0.5-0.1s0.3-0.1,0.4-0.2c0,0,0.1-0.1,0.2-0.2c0.1-0.1,0.1-0.1,0.2-0.1s0.1,0,0.1,0
		c0,0,0,0,0,0.1c0,0.2-0.2,0.5-0.6,0.7c-0.4,0.3-0.8,0.4-1.3,0.4c-0.6,0-1.1-0.2-1.4-0.6s-0.5-0.9-0.5-1.5c0-0.3,0-0.6,0.1-0.9
		c0.1-0.3,0.2-0.5,0.4-0.8c0.2-0.3,0.5-0.5,0.8-0.7s0.6-0.2,1-0.2s0.6,0.1,0.9,0.2c0.3,0.2,0.4,0.3,0.4,0.5c0,0,0,0,0,0.1
		C26.3,16.3,26.3,16.3,26.2,16.4z"/>
	<path fill="#FFFFFF" d="M31.2,17.1v1.7c0,0.3,0,0.5,0.1,0.5c0.1,0.1,0.2,0.2,0.3,0.2c0,0,0.1,0,0.1,0c0.1,0,0.1,0,0.1,0
		c0,0,0.1,0,0.1,0c0,0,0,0,0,0.1c0,0.1-0.1,0.2-0.3,0.3S31.3,20,31.1,20c-0.2,0-0.3,0-0.5-0.1c-0.1-0.1-0.2-0.2-0.3-0.4
		c-0.2,0.2-0.5,0.4-0.8,0.5c-0.3,0.1-0.6,0.2-0.9,0.2c-0.3,0-0.6-0.1-0.8-0.3c-0.2-0.2-0.3-0.4-0.3-0.8c0-0.4,0.2-0.8,0.5-1
		c0.4-0.2,1-0.5,2.1-0.6c0,0,0-0.1,0-0.1s0-0.1,0-0.2c0-0.5-0.1-0.8-0.3-1c-0.2-0.2-0.4-0.4-0.8-0.4c-0.2,0-0.4,0-0.5,0.2
		c-0.1,0.1-0.2,0.3-0.2,0.5c0,0,0,0,0,0.1s0,0.1,0,0.1c0,0.1,0,0.1-0.2,0.2c-0.1,0-0.3,0.1-0.5,0.1c-0.1,0-0.1,0-0.1,0
		c0,0,0-0.1,0-0.2c0-0.3,0.2-0.6,0.5-0.8s0.7-0.3,1.2-0.3c0.6,0,1,0.1,1.3,0.4C31,16.1,31.2,16.5,31.2,17.1z M30.3,18.7v-1
		c-0.6,0.1-1,0.3-1.3,0.5c-0.2,0.2-0.4,0.5-0.4,0.8c0,0.2,0.1,0.4,0.2,0.5c0.1,0.1,0.3,0.2,0.5,0.2c0.1,0,0.3,0,0.4-0.1
		c0.1-0.1,0.3-0.1,0.4-0.2c0.1-0.1,0.1-0.1,0.1-0.2C30.3,19,30.3,18.9,30.3,18.7z"/>
</g>
</svg>
